<?xml version="1.0" encoding="iso-8859-1"?>
<!-- Generator: Adobe Illustrator 19.0.0, SVG Export Plug-In . SVG Version: 6.00 Build 0)  -->
<svg version="1.1" id="Capa_1" xmlns="http://www.w3.org/2000/svg" xmlns:xlink="http://www.w3.org/1999/xlink" x="0px" y="0px"
	 viewBox="0 0 368 368" style="enable-background:new 0 0 368 368;" xml:space="preserve">
<polygon style="fill:#c6effd;" points="328,72 328,136 296,136 248,136 248,72 296,72 "/>
<path style="fill:#EFF7FF;" d="M88,8h160v64v64v96v64v64H88H48c-4.4,0-8-3.6-8-8V16c0-4.4,3.6-8,8-8H88z"/>
<path style="fill:#0793C3;" d="M328,64h-24V16c0-8.824-7.176-16-16-16H48c-8.824,0-16,7.176-16,16v336c0,8.824,7.176,16,16,16h240
	c8.824,0,16-7.176,16-16v-48h24c4.424,0,8-3.584,8-8v-64c0-4.416-3.576-8-8-8h-24v-80h24c4.424,0,8-3.584,8-8V72
	C336,67.584,332.424,64,328,64z M288,64h-32V16h32V64z M48,16h32v208c0,4.416,3.576,8,8,8s8-3.584,8-8V16h144v336H96v-56
	c0-4.416-3.576-8-8-8s-8,3.584-8,8v56H48V16z M288,352h-32v-48h32V352z M320,288h-64v-48h64V288z M288,224h-32v-80h32V224z M320,128
	h-64V80h64V128z"/>
</svg>
