<svg height="480pt" viewBox="0 0 480 480" width="480pt" xmlns="http://www.w3.org/2000/svg"><path d="m56 448c0 13.253906-10.746094 24-24 24s-24-10.746094-24-24 10.746094-24 24-24 24 10.746094 24 24zm0 0" fill="#dc6068"/><path d="m112 368c0 13.253906-10.746094 24-24 24s-24-10.746094-24-24 10.746094-24 24-24 24 10.746094 24 24zm0 0" fill="#f8cf6a"/><path d="m56 288c0 13.253906-10.746094 24-24 24s-24-10.746094-24-24 10.746094-24 24-24 24 10.746094 24 24zm0 0" fill="#699ce6"/><path d="m472 32c0 13.253906-10.746094 24-24 24s-24-10.746094-24-24 10.746094-24 24-24 24 10.746094 24 24zm0 0" fill="#699ce6"/><path d="m472 192c0 13.253906-10.746094 24-24 24s-24-10.746094-24-24 10.746094-24 24-24 24 10.746094 24 24zm0 0" fill="#f8cf6a"/><path d="m416 112c0 13.253906-10.746094 24-24 24s-24-10.746094-24-24 10.746094-24 24-24 24 10.746094 24 24zm0 0" fill="#dc6068"/><path d="m128.414062 413.167969c-.175781-1.710938-.414062-3.398438-.414062-5.167969 0-13.6875 5.519531-25.753906 13.910156-32.960938-3.695312-6.527343-5.910156-14.4375-5.910156-23.039062 0-15.558594 7.183594-28.902344 17.566406-35.511719-5.894531-7.257812-9.566406-17.328125-9.566406-28.488281 0-19.945312 11.703125-36.335938 26.976562-39.367188-1.863281-5.082031-2.976562-10.679687-2.976562-16.632812 0-22.089844 14.328125-40 32-40 3.183594 0 6.191406.761719 9.089844 1.839844-.640625-3.167969-1.089844-6.425782-1.089844-9.839844 0-22.089844 14.328125-40 32-40 3.183594 0 6.191406.761719 9.089844 1.839844-.640625-3.167969-1.089844-6.425782-1.089844-9.839844 0-22.089844 14.328125-40 32-40 0-16.777344 8.28125-31.089844 19.992188-37.03125-2.464844-5.664062-3.992188-12.066406-3.992188-18.96875 0-22.089844 14.328125-40 32-40s32 17.910156 32 40c0 16.777344-8.28125 31.089844-19.992188 37.03125 2.464844 5.664062 3.992188 12.066406 3.992188 18.96875 0 22.089844-14.328125 40-32 40 0 22.089844-14.328125 40-32 40-3.183594 0-6.191406-.761719-9.089844-1.839844.640625 3.167969 1.089844 6.425782 1.089844 9.839844 0 22.089844-14.328125 40-32 40-3.183594 0-6.191406-.761719-9.089844-1.839844.640625 3.167969 1.089844 6.425782 1.089844 9.839844 0 19.945312-11.703125 36.335938-26.976562 39.367188 1.863281 5.082031 2.976562 10.679687 2.976562 16.632812 0 15.558594-7.183594 28.902344-17.566406 35.511719 5.894531 7.257812 9.566406 17.328125 9.566406 28.488281 0 13.6875-5.519531 25.753906-13.910156 32.960938 3.695312 6.527343 5.910156 14.4375 5.910156 23.039062 0 10.367188-3.238281 19.726562-8.414062 26.832031.175781 1.710938.414062 3.398438.414062 5.167969 0 22.089844-14.328125 40-32 40s-32-17.910156-32-40c0-10.367188 3.238281-19.726562 8.414062-26.832031zm0 0" fill="#599072"/><path d="m170.976562 248.632812c-1.863281-5.082031-2.976562-10.679687-2.976562-16.632812 0-22.089844 14.328125-40 32-40 3.183594 0 6.191406.761719 9.089844 1.839844-.640625-3.167969-1.089844-6.425782-1.089844-9.839844 0-22.089844 14.328125-40 32-40 3.183594 0 6.191406.761719 9.089844 1.839844-.640625-3.167969-1.089844-6.425782-1.089844-9.839844 0-9.382812 2.695312-17.902344 7.023438-24.726562l.976562.726562 56 24c0 22.089844-14.328125 40-32 40-3.183594 0-6.191406-.761719-9.089844-1.839844.640625 3.167969 1.089844 6.425782 1.089844 9.839844 0 22.089844-14.328125 40-32 40-3.183594 0-6.191406-.761719-9.089844-1.839844.640625 3.167969 1.089844 6.425782 1.089844 9.839844 0 19.945312-11.703125 36.335938-26.976562 39.367188 1.863281 5.082031 2.976562 10.679687 2.976562 16.632812 0 2.695312-.289062 5.289062-.695312 7.824219l-62.648438-15.664063c2.601562-16.265625 13.113281-28.902344 26.320312-31.527344zm0 0" fill="#bc8f6f"/><path d="m351.585938 413.167969c.175781-1.710938.414062-3.398438.414062-5.167969 0-13.6875-5.519531-25.753906-13.910156-32.960938 3.695312-6.527343 5.910156-14.4375 5.910156-23.039062 0-15.558594-7.183594-28.902344-17.566406-35.511719 5.894531-7.257812 9.566406-17.328125 9.566406-28.488281 0-19.945312-11.703125-36.335938-26.976562-39.367188 1.863281-5.082031 2.976562-10.679687 2.976562-16.632812 0-22.089844-14.328125-40-32-40-3.183594 0-6.191406.761719-9.089844 1.839844.640625-3.167969 1.089844-6.425782 1.089844-9.839844 0-22.089844-14.328125-40-32-40-3.183594 0-6.191406.761719-9.089844 1.839844.640625-3.167969 1.089844-6.425782 1.089844-9.839844 0-22.089844-14.328125-40-32-40 0-16.777344-8.28125-31.089844-19.992188-37.03125 2.464844-5.664062 3.992188-12.066406 3.992188-18.96875 0-22.089844-14.328125-40-32-40s-32 17.910156-32 40c0 16.777344 8.28125 31.089844 19.992188 37.03125-2.464844 5.664062-3.992188 12.066406-3.992188 18.96875 0 22.089844 14.328125 40 32 40 0 22.089844 14.328125 40 32 40 3.183594 0 6.191406-.761719 9.089844-1.839844-.640625 3.167969-1.089844 6.425782-1.089844 9.839844 0 22.089844 14.328125 40 32 40 3.183594 0 6.191406-.761719 9.089844-1.839844-.640625 3.167969-1.089844 6.425782-1.089844 9.839844 0 19.945312 11.703125 36.335938 26.976562 39.367188-1.863281 5.082031-2.976562 10.679687-2.976562 16.632812 0 15.558594 7.183594 28.902344 17.566406 35.511719-5.894531 7.257812-9.566406 17.328125-9.566406 28.488281 0 13.6875 5.519531 25.753906 13.910156 32.960938-3.695312 6.527343-5.910156 14.4375-5.910156 23.039062 0 10.367188 3.238281 19.726562 8.414062 26.832031-.175781 1.710938-.414062 3.398438-.414062 5.167969 0 22.089844 14.328125 40 32 40s32-17.910156 32-40c0-10.367188-3.238281-19.726562-8.414062-26.832031zm0 0" fill="#70b48f"/><path d="m309.023438 248.632812c1.863281-5.082031 2.976562-10.679687 2.976562-16.632812 0-22.089844-14.328125-40-32-40-3.183594 0-6.191406.761719-9.089844 1.839844.640625-3.167969 1.089844-6.425782 1.089844-9.839844 0-22.089844-14.328125-40-32-40-3.183594 0-6.191406.761719-9.089844 1.839844.640625-3.167969 1.089844-6.425782 1.089844-9.839844 0-9.382812-2.695312-17.902344-7.023438-24.726562l-.976562.726562-56 24c0 22.089844 14.328125 40 32 40 3.183594 0 6.191406-.761719 9.089844-1.839844-.640625 3.167969-1.089844 6.425782-1.089844 9.839844 0 22.089844 14.328125 40 32 40 3.183594 0 6.191406-.761719 9.089844-1.839844-.640625 3.167969-1.089844 6.425782-1.089844 9.839844 0 19.945312 11.703125 36.335938 26.976562 39.367188-1.863281 5.082031-2.976562 10.679687-2.976562 16.632812 0 2.695312.289062 5.289062.695312 7.824219l62.648438-15.664063c-2.601562-16.265625-13.113281-28.902344-26.320312-31.527344zm0 0" fill="#cb9e78"/><g fill="#5b6673"><path d="m96 248h-16v-12.921875c0-25.644531-9.984375-49.75-28.121094-67.878906l-3.078125-3.078125c-21.152343-21.152344-32.800781-49.28125-32.800781-79.199219v-12.921875h16v12.921875c0 25.644531 9.984375 49.75 28.121094 67.878906l3.078125 3.078125c21.152343 21.152344 32.800781 49.28125 32.800781 79.199219zm0 0"/><path d="m32 248h-16v-12.921875c0-29.917969 11.648438-58.046875 32.808594-79.191406l3.078125-3.078125c18.128906-18.136719 28.113281-42.242188 28.113281-67.886719v-12.921875h16v12.921875c0 29.917969-11.648438 58.046875-32.808594 79.191406l-3.078125 3.078125c-18.128906 18.136719-28.113281 42.242188-28.113281 67.886719zm0 0"/><path d="m32 112h48v16h-48zm0 0"/><path d="m32 192h48v16h-48zm0 0"/><path d="m464 408h-16v-12.921875c0-25.644531-9.984375-49.75-28.121094-67.878906l-3.078125-3.078125c-21.152343-21.152344-32.800781-49.28125-32.800781-79.199219v-12.921875h16v12.921875c0 25.644531 9.984375 49.75 28.121094 67.878906l3.078125 3.078125c21.152343 21.152344 32.800781 49.28125 32.800781 79.199219zm0 0"/><path d="m400 408h-16v-12.921875c0-29.917969 11.648438-58.046875 32.808594-79.191406l3.078125-3.078125c18.128906-18.136719 28.113281-42.242188 28.113281-67.886719v-12.921875h16v12.921875c0 29.917969-11.648438 58.046875-32.808594 79.191406l-3.078125 3.078125c-18.128906 18.136719-28.113281 42.242188-28.113281 67.886719zm0 0"/><path d="m400 272h48v16h-48zm0 0"/><path d="m400 352h48v16h-48zm0 0"/><path d="m32 480c-17.648438 0-32-14.351562-32-32s14.351562-32 32-32 32 14.351562 32 32-14.351562 32-32 32zm0-48c-8.824219 0-16 7.175781-16 16s7.175781 16 16 16 16-7.175781 16-16-7.175781-16-16-16zm0 0"/><path d="m88 400c-17.648438 0-32-14.351562-32-32s14.351562-32 32-32 32 14.351562 32 32-14.351562 32-32 32zm0-48c-8.824219 0-16 7.175781-16 16s7.175781 16 16 16 16-7.175781 16-16-7.175781-16-16-16zm0 0"/><path d="m32 320c-17.648438 0-32-14.351562-32-32s14.351562-32 32-32 32 14.351562 32 32-14.351562 32-32 32zm0-48c-8.824219 0-16 7.175781-16 16s7.175781 16 16 16 16-7.175781 16-16-7.175781-16-16-16zm0 0"/><path d="m41.144531 308.121094 13.71875-8.230469 24 40-13.71875 8.230469zm0 0"/><path d="m41.59375 419.1875 23.992188-32.003906 12.792968 9.589844-23.992187 32.003906zm0 0"/><path d="m448 224c-17.648438 0-32-14.351562-32-32s14.351562-32 32-32 32 14.351562 32 32-14.351562 32-32 32zm0-48c-8.824219 0-16 7.175781-16 16s7.175781 16 16 16 16-7.175781 16-16-7.175781-16-16-16zm0 0"/><path d="m392 144c-17.648438 0-32-14.351562-32-32s14.351562-32 32-32 32 14.351562 32 32-14.351562 32-32 32zm0-48c-8.824219 0-16 7.175781-16 16s7.175781 16 16 16 16-7.175781 16-16-7.175781-16-16-16zm0 0"/><path d="m448 64c-17.648438 0-32-14.351562-32-32s14.351562-32 32-32 32 14.351562 32 32-14.351562 32-32 32zm0-48c-8.824219 0-16 7.175781-16 16s7.175781 16 16 16 16-7.175781 16-16-7.175781-16-16-16zm0 0"/><path d="m401.121094 83.878906 24.007812-39.996094 13.71875 8.234376-24.007812 39.996093zm0 0"/><path d="m401.601562 140.800781 12.792969-9.597656 24 32-12.792969 9.597656zm0 0"/></g></svg>