<svg height="480pt" viewBox="-4 0 480 480" width="480pt" xmlns="http://www.w3.org/2000/svg"><path d="m328 184h88v16h-88zm0 0" fill="#bab8b9"/><path d="m336 408h48v16h-48zm0 0" fill="#bab8b9"/><path d="m56 280h96v16h-96zm0 0" fill="#bab8b9"/><path d="m88 56h48v16h-48zm0 0" fill="#bab8b9"/><path d="m416 416c0 8.835938-7.164062 16-16 16s-16-7.164062-16-16 7.164062-16 16-16 16 7.164062 16 16zm0 0" fill="#699ce6"/><path d="m464 192c0 13.253906-10.746094 24-24 24s-24-10.746094-24-24 10.746094-24 24-24 24 10.746094 24 24zm0 0" fill="#70b48f"/><path d="m440 224c-17.648438 0-32-14.351562-32-32s14.351562-32 32-32 32 14.351562 32 32-14.351562 32-32 32zm0-48c-8.824219 0-16 7.175781-16 16s7.175781 16 16 16 16-7.175781 16-16-7.175781-16-16-16zm0 0" fill="#599072"/><path d="m400 440c-13.230469 0-24-10.769531-24-24s10.769531-24 24-24 24 10.769531 24 24-10.769531 24-24 24zm0-32c-4.40625 0-8 3.585938-8 8s3.59375 8 8 8 8-3.585938 8-8-3.59375-8-8-8zm0 0" fill="#5789d6"/><path d="m88 64c0 8.835938-7.164062 16-16 16s-16-7.164062-16-16 7.164062-16 16-16 16 7.164062 16 16zm0 0" fill="#eea273"/><path d="m56 288c0 13.253906-10.746094 24-24 24s-24-10.746094-24-24 10.746094-24 24-24 24 10.746094 24 24zm0 0" fill="#f8cf6a"/><path d="m32 320c-17.648438 0-32-14.351562-32-32s14.351562-32 32-32 32 14.351562 32 32-14.351562 32-32 32zm0-48c-8.824219 0-16 7.175781-16 16s7.175781 16 16 16 16-7.175781 16-16-7.175781-16-16-16zm0 0" fill="#eebc5a"/><path d="m72 88c-13.230469 0-24-10.769531-24-24s10.769531-24 24-24 24 10.769531 24 24-10.769531 24-24 24zm0-32c-4.40625 0-8 3.59375-8 8s3.59375 8 8 8 8-3.59375 8-8-3.59375-8-8-8zm0 0" fill="#df9363"/><path d="m320 240c0 44.183594-35.816406 80-80 80s-80-35.816406-80-80 35.816406-80 80-80 80 35.816406 80 80zm0 0" fill="#fff"/><path d="m240 352c-44.183594 0-80 35.816406-80 80v48h160v-48c0-44.183594-35.816406-80-80-80zm0 0" fill="#fff"/><path d="m240 128c44.183594 0 80-35.816406 80-80v-48h-160v48c0 44.183594 35.816406 80 80 80zm0 0" fill="#fff"/><path d="m168 184h144v16h-144zm0 0" fill="#ca5057"/><path d="m168 280h144v16h-144zm0 0" fill="#ca5057"/><path d="m152 232h176v16h-176zm0 0" fill="#ca5057"/><g fill="#ed7775"><path d="m168 88h144v16h-144zm0 0"/><path d="m152 56h176v16h-176zm0 0"/><path d="m152 24h176v16h-176zm0 0"/><path d="m168 376h144v16h-144zm0 0"/><path d="m152 408h176v16h-176zm0 0"/><path d="m152 440h176v16h-176zm0 0"/></g><path d="m128 480v-48c0-61.855469 50.144531-112 112-112 44.183594 0 80-35.816406 80-80s-35.816406-80-80-80c-61.855469 0-112-50.144531-112-112v-48h32v48c0 44.183594 35.816406 80 80 80 61.855469 0 112 50.144531 112 112s-50.144531 112-112 112c-44.183594 0-80 35.816406-80 80v48zm0 0" fill="#ca5057"/><path d="m128 480v-48c0-61.855469 50.144531-112 112-112 44.183594 0 80-35.816406 80-80s-35.816406-80-80-80c-61.855469 0-112-50.144531-112-112v-48h16v48c0 53.015625 42.984375 96 96 96s96 42.984375 96 96-42.984375 96-96 96-96 42.984375-96 96v48zm0 0" fill="#dc6068"/><path d="m352 480v-48c0-61.855469-50.144531-112-112-112-44.183594 0-80-35.816406-80-80s35.816406-80 80-80c61.855469 0 112-50.144531 112-112v-48h-32v48c0 44.183594-35.816406 80-80 80-61.855469 0-112 50.144531-112 112s50.144531 112 112 112c44.183594 0 80 35.816406 80 80v48zm0 0" fill="#d46b69"/><path d="m352 480v-48c0-61.855469-50.144531-112-112-112-44.183594 0-80-35.816406-80-80s35.816406-80 80-80c61.855469 0 112-50.144531 112-112v-48h-16v48c0 53.015625-42.984375 96-96 96s-96 42.984375-96 96 42.984375 96 96 96 96 42.984375 96 96v48zm0 0" fill="#ed7775"/></svg>