<?xml version="1.0" encoding="iso-8859-1"?>
<!-- Generator: Adobe Illustrator 19.0.0, SVG Export Plug-In . SVG Version: 6.00 Build 0)  -->
<svg version="1.1" id="Capa_1" xmlns="http://www.w3.org/2000/svg" xmlns:xlink="http://www.w3.org/1999/xlink" x="0px" y="0px"
	 viewBox="0 0 368 368" style="enable-background:new 0 0 368 368;" xml:space="preserve">
<g>
	<path style="fill:#c6effd;" d="M133.28,120h101.44c-14.4,24.08-32.56,44.08-50.72,64C165.84,164.08,147.68,144.08,133.28,120z"/>
	<path style="fill:#c6effd;" d="M234.72,248H133.28c14.4-24.08,32.56-44.08,50.72-64C202.16,203.92,220.32,223.92,234.72,248z"/>
</g>
<path style="fill:#0793C3;" d="M126.408,243.92c-9.576,15.928-16.672,32.24-21.688,49.848c0,0.008-0.008,0.008-0.008,0.016
	c-4.472,15.488-7.16,31.752-8.208,49.712v0.008C96.168,348.864,96,354.312,96,360c0,4.416,3.584,8,8,8s8-3.584,8-8
	c0-2.76,0.16-5.344,0.24-8h143.52c0.08,2.656,0.24,5.24,0.24,8c0,4.416,3.584,8,8,8s8-3.584,8-8c0-5.688-0.168-11.136-0.496-16.496
	v-0.008c-1.056-17.96-3.736-34.224-8.208-49.712c0-0.008-0.008-0.008-0.008-0.016c-5.016-17.608-12.112-33.92-21.688-49.848
	c-0.008-0.008-0.008-0.016-0.008-0.024c-13.608-22.76-30.296-41.72-46.8-59.896c16.504-18.168,33.192-37.136,46.8-59.896
	c0-0.008,0-0.008,0.008-0.016c9.584-15.936,16.672-32.248,21.688-49.856c0-0.008,0.008-0.008,0.008-0.016
	c4.472-15.488,7.16-31.752,8.208-49.712v-0.008C271.832,19.136,272,13.688,272,8c0-4.416-3.584-8-8-8s-8,3.584-8,8
	c0,2.76-0.16,5.344-0.24,8H112.24c-0.08-2.656-0.24-5.24-0.24-8c0-4.416-3.584-8-8-8s-8,3.584-8,8
	c0,5.688,0.168,11.136,0.496,16.496v0.008c1.056,17.96,3.736,34.224,8.208,49.712c0,0.008,0.008,0.008,0.008,0.016
	c5.016,17.616,12.112,33.92,21.688,49.856c0,0.008,0,0.008,0.008,0.016c13.608,22.76,30.296,41.72,46.8,59.896
	c-16.504,18.168-33.192,37.136-46.8,59.896C126.408,243.904,126.408,243.912,126.408,243.92z M230.032,256
	c5.928,10.368,10.784,20.936,14.616,32H123.352c3.824-11.064,8.688-21.632,14.616-32H230.032z M113.104,336
	c1.04-11.296,2.832-21.864,5.408-32H249.48c2.576,10.136,4.368,20.704,5.408,32H113.104z M230.136,112h-92.272
	c-5.92-10.36-10.712-20.936-14.536-32H244.68C240.848,91.064,236.064,101.64,230.136,112z M219.936,128
	c-10.944,15.92-23.424,30.312-35.936,44.112c-12.512-13.8-24.992-28.192-35.936-44.112H219.936z M254.896,32
	c-1.04,11.296-2.832,21.864-5.408,32H118.512c-2.576-10.136-4.368-20.704-5.408-32H254.896z M184,195.888
	c12.536,13.824,25.112,28.16,36.072,44.112H147.92C158.888,224.048,171.464,209.712,184,195.888z"/>
</svg>
