<?xml version="1.0"?>
<svg xmlns="http://www.w3.org/2000/svg" xmlns:xlink="http://www.w3.org/1999/xlink" version="1.1" id="Capa_1" x="0px" y="0px" viewBox="0 0 512 512" style="enable-background:new 0 0 512 512;" xml:space="preserve" width="512px" height="512px" class=""><g><path style="fill: rgb(254, 183, 86);" d="M493.21,450.79c11.72,11.71,11.72,30.71,0,42.42c-5.86,5.86-13.53,8.79-21.21,8.79  s-15.35-2.93-21.21-8.79l-20-20l42.42-42.42L493.21,450.79z" data-original="#FEB756"/><polygon style="fill: rgb(253, 60, 101);" points="361.42,318.99 473.21,430.79 430.79,473.21 318.99,361.42 326.06,354.35 354.35,326.06 " data-original="#FD3C65" class=""/><path style="fill: rgb(255, 245, 205);" d="M354.35,326.06l-28.29,28.29l-40.82-40.83c10.5-8.29,19.99-17.78,28.28-28.28L354.35,326.06z" data-original="#FFF5CD" class=""/><path style="fill:#0793C3" d="M350,180c0,39.73-13.64,76.29-36.48,105.24c-8.29,10.5-17.78,19.99-28.28,28.28  C256.29,336.36,219.73,350,180,350c-93.89,0-170-76.11-170-170S86.11,10,180,10S350,86.11,350,180z" data-original="#4DBBEB" class="" data-old_color="#4DBBEB"/><path style="fill:#C6EFFD" d="M310,180c0,30.382-10.431,58.339-27.896,80.478c-6.339,8.029-13.596,15.286-21.626,21.626  C238.339,299.569,210.382,310,180,310c-71.798,0-130-58.202-130-130S108.202,50,180,50S310,108.202,310,180z" data-original="#C4F0FF" class="active-path" data-old_color="#C4F0FF"/><path d="M95.15,95.15c3.9-3.91,3.9-10.24,0-14.14c-3.91-3.91-10.24-3.91-14.14,0c-3.91,3.9-3.91,10.23,0,14.14  C84.91,99.05,91.24,99.05,95.15,95.15z" data-original="#000000" class="" style="fill:#333333" data-old_color="#000000"/><path d="M500.281,443.719L368.491,311.92c-1.875-1.875-4.419-2.929-7.071-2.929s-5.195,1.054-7.071,2.929l-27.63-27.624  C348.517,253.747,360,217.879,360,180C360,80.748,279.252,0,180,0S0,80.748,0,180s80.748,180,180,180  c37.878,0,73.746-11.482,104.295-33.281l27.624,27.631c-1.875,1.875-2.928,4.419-2.928,7.071s1.054,5.196,2.93,7.071l111.799,111.79  l20,20C451.276,507.838,461.319,512,472,512s20.724-4.162,28.278-11.716C507.837,492.731,512,482.687,512,472  S507.837,451.269,500.281,443.719z M326.061,340.207l-26.052-26.059c4.968-4.449,9.691-9.171,14.139-14.139l26.059,26.052  L326.061,340.207z M20,180C20,91.776,91.776,20,180,20c88.225,0,160,71.776,160,160c0,36.33-11.871,70.579-34.329,99.044  c-7.793,9.871-16.751,18.829-26.624,26.625C250.578,328.128,216.329,340,180,340C91.776,340,20,268.224,20,180z M361.412,333.14  c0.002-0.002,0.005-0.004,0.008-0.007l97.649,97.656l-28.279,28.279l-97.656-97.649L361.412,333.14z M486.139,486.139  C482.359,489.918,477.338,492,472,492s-10.359-2.082-14.139-5.861l-12.929-12.929l28.278-28.278l12.931,12.932  C489.919,461.638,492,466.659,492,472S489.919,482.361,486.139,486.139z" data-original="#000000" class="" style="fill:#333333" data-old_color="#000000"/><path d="M132.929,227.071c1.953,1.953,4.512,2.929,7.071,2.929s5.119-0.976,7.071-2.929L180,194.143l32.929,32.929  c1.953,1.953,4.512,2.929,7.071,2.929s5.119-0.976,7.071-2.929c3.905-3.905,3.905-10.237,0-14.143L194.143,180l32.929-32.929  c3.905-3.905,3.905-10.237,0-14.143s-10.237-3.905-14.143,0L180,165.857l-32.929-32.929c-3.905-3.905-10.237-3.905-14.143,0  s-3.905,10.237,0,14.143L165.857,180l-32.929,32.929C129.023,216.834,129.023,223.166,132.929,227.071z" data-original="#000000" class="" style="fill:#333333" data-old_color="#000000"/><path d="M180,40c-22.305,0-44.512,5.398-64.221,15.611c-4.903,2.541-6.819,8.576-4.278,13.48c2.542,4.904,8.576,6.819,13.48,4.278  C142.1,64.498,160.611,60,180,60c66.168,0,120,53.832,120,120s-53.832,120-120,120S60,246.168,60,180  c0-19.383,4.498-37.891,13.369-55.009c2.542-4.904,0.626-10.938-4.277-13.479c-4.904-2.542-10.938-0.626-13.48,4.277  C45.398,135.498,40,157.701,40,180c0,77.196,62.804,140,140,140s140-62.804,140-140S257.196,40,180,40z" data-original="#000000" class="" style="fill:#333333" data-old_color="#000000"/></g> </svg>
