<?xml version="1.0" encoding="iso-8859-1"?>
<!-- Generator: Adobe Illustrator 19.0.0, SVG Export Plug-In . SVG Version: 6.00 Build 0)  -->
<svg version="1.1" id="Capa_1" xmlns="http://www.w3.org/2000/svg" xmlns:xlink="http://www.w3.org/1999/xlink" x="0px" y="0px"
	 viewBox="0 0 368 368" style="enable-background:new 0 0 368 368;" xml:space="preserve">
<g>
	<path style="fill:#c6effd;" d="M312.003,130.16V352c0,4.4-3.6,8-8,8h-56V232v-40c0-4.4-3.6-8-8-8h-112c-4.4,0-8,3.6-8,8v40v128h-56
		c-4.4,0-8-3.6-8-8V136l128-128l64,61.12L312.003,130.16z"/>
	<path style="fill:#c6effd;" d="M248.003,192v40h-128v-40c0-4.4,3.6-8,8-8h112C244.403,184,248.003,187.6,248.003,192z"/>
</g>
<path style="fill:#0793C3;" d="M320.003,126.744V8c0-4.416-3.584-8-8-8h-64c-4.416,0-8,3.584-8,8v42.392l-50.48-48.176
	c-3.144-3-8.112-2.952-11.176,0.128l-128,128l-48,48c-3.128,3.128-3.128,8.184,0,11.312c1.56,1.56,3.608,2.344,5.656,2.344
	s4.096-0.784,5.656-2.344l34.344-34.344V352c0,8.824,7.176,16,16,16h240c8.824,0,16-7.176,16-16V148.864l34.48,32.928
	c1.544,1.472,3.528,2.208,5.52,2.208c2.112,0,4.216-0.832,5.784-2.48c3.048-3.192,2.936-8.256-0.264-11.312L320.003,126.744z
	 M256.003,16h48v95.472l-48-45.808V16z M240.003,224h-112v-32h112V224z M128.003,240h112v112h-112V240z M304.003,352h-48V192
	c0-8.824-7.176-16-16-16h-112c-8.824,0-16,7.176-16,16v160h-48V139.312L184.131,19.184l58.144,55.496
	c0.064,0.064,0.128,0.12,0.192,0.184l61.536,58.72V352z"/>
</svg>
