<svg height="480pt" viewBox="0 0 480 480" width="480pt" xmlns="http://www.w3.org/2000/svg"><path d="m240 184c0 8.835938-7.164062 16-16 16s-16-7.164062-16-16 7.164062-16 16-16 16 7.164062 16 16zm0 0" fill="#8d5655"/><path d="m144 184c0 8.835938-7.164062 16-16 16s-16-7.164062-16-16 7.164062-16 16-16 16 7.164062 16 16zm0 0" fill="#dbaf89"/><path d="m144 24c0 8.835938-7.164062 16-16 16s-16-7.164062-16-16 7.164062-16 16-16 16 7.164062 16 16zm0 0" fill="#70b48f"/><path d="m64 104c0-8.839844 7.160156-16 16-16s16 7.160156 16 16-7.160156 16-16 16-16-7.160156-16-16" fill="#699ce6"/><path d="m200 104c0 13.253906-10.746094 24-24 24s-24-10.746094-24-24 10.746094-24 24-24 24 10.746094 24 24zm0 0" fill="#eebc5a"/><path d="m56 184c0 13.253906-10.746094 24-24 24s-24-10.746094-24-24 10.746094-24 24-24 24 10.746094 24 24zm0 0" fill="#dc6068"/><path d="m288 240-24 24-24-24 24-24" fill="#5b6673"/><path d="m384 96.003906 32-32.003906 32.003906 32.003906-32.003906 32zm0 0" fill="#ca5057"/><path d="m384 184 48-48-56-56-104 104 56 56 24-24" fill="#bab8b9"/><path d="m351.996094 104 24.003906-24.003906 55.996094 55.996094-24.003906 24.003906zm0 0" fill="#d9d7d8"/><path d="m248 208 24-24.003906 72 72-24.003906 24.003906zm0 0" fill="#d9d7d8"/><path d="m399.996094 56 24.003906-24.003906 55.996094 56-24.003906 24zm0 0" fill="#bab8b9"/><path d="m288 384v-32h-32v32" fill="#cb9e78"/><path d="m384 216c35.34375 0 64 28.65625 64 64v40c0 35.34375-28.65625 64-64 64h-144v32h152c48.601562 0 88-39.398438 88-88v-56c0-48.601562-39.398438-88-88-88" fill="#599072"/><path d="m352 448v-32h-48v32" fill="#cb9e78"/><path d="m256 448h144v32h-144zm0 0" fill="#bc8f6f"/><path d="m208 376c0 57.4375-46.5625 104-104 104s-104-46.5625-104-104 46.5625-104 104-104 104 46.5625 104 104zm0 0" fill="#94cce7"/><path d="m71.785156 338.105469c.09375-.699219.214844-1.386719.214844-2.105469 0-8.839844-7.160156-16-16-16s-16 7.160156-16 16c0 3.320312 1.007812 6.398438 2.742188 8.960938-6.238282 2.175781-10.742188 8.054687-10.742188 15.039062 0 8.839844 7.160156 16 16 16 5.992188 0 11.152344-3.335938 13.894531-8.214844.699219.09375 1.386719.214844 2.105469.214844 8.839844 0 16-7.160156 16-16 0-5.992188-3.335938-11.152344-8.214844-13.894531zm0 0" fill="#5b6673"/><path d="m152 400c0 8.835938-7.164062 16-16 16s-16-7.164062-16-16 7.164062-16 16-16 16 7.164062 16 16zm0 0" fill="#bab8b9"/><path d="m152 320c0-8.835938-10.746094-16-24-16s-24 7.164062-24 16 10.746094 16 24 16 24-7.164062 24-16zm0 0" fill="#5b6673"/><path d="m81.355469 121.824219 13.722656-8.230469 31.578125 52.628906-13.722656 8.234375zm0 0"/><g fill="#bab8b9"><path d="m80 128c-13.230469 0-24-10.769531-24-24s10.769531-24 24-24 24 10.769531 24 24-10.769531 24-24 24zm0-32c-4.414062 0-8 3.585938-8 8s3.585938 8 8 8 8-3.585938 8-8-3.585938-8-8-8zm0 0"/><path d="m128 208c-13.230469 0-24-10.769531-24-24s10.769531-24 24-24 24 10.769531 24 24-10.769531 24-24 24zm0-32c-4.414062 0-8 3.585938-8 8s3.585938 8 8 8 8-3.585938 8-8-3.585938-8-8-8zm0 0"/><path d="m32 216c-17.648438 0-32-14.351562-32-32s14.351562-32 32-32 32 14.351562 32 32-14.351562 32-32 32zm0-48c-8.824219 0-16 7.175781-16 16s7.175781 16 16 16 16-7.175781 16-16-7.175781-16-16-16zm0 0"/><path d="m37.480469 159.304688 27.441406-45.722657 13.71875 8.234375-27.441406 45.722656zm0 0"/><path d="m56 176h56v16h-56zm0 0"/><path d="m144 176h64v16h-64zm0 0"/><path d="m81.355469 121.804688 13.722656-8.234376 31.570313 52.609376-13.71875 8.234374zm0 0"/><path d="m81.34375 86.191406 31.585938-52.632812 13.71875 8.234375-31.589844 52.628906zm0 0"/><path d="m128 48c-13.230469 0-24-10.769531-24-24s10.769531-24 24-24 24 10.769531 24 24-10.769531 24-24 24zm0-32c-4.414062 0-8 3.585938-8 8s3.585938 8 8 8 8-3.585938 8-8-3.585938-8-8-8zm0 0"/><path d="m224 208c-13.230469 0-24-10.769531-24-24s10.769531-24 24-24 24 10.769531 24 24-10.769531 24-24 24zm0-32c-4.414062 0-8 3.585938-8 8s3.585938 8 8 8 8-3.585938 8-8-3.585938-8-8-8zm0 0"/><path d="m176 136c-17.648438 0-32-14.351562-32-32s14.351562-32 32-32 32 14.351562 32 32-14.351562 32-32 32zm0-48c-8.824219 0-16 7.175781-16 16s7.175781 16 16 16 16-7.175781 16-16-7.175781-16-16-16zm0 0"/><path d="m129.355469 166.171875 27.4375-45.714844 13.71875 8.234375-27.4375 45.714844zm0 0"/><path d="m96 96h56v16h-56zm0 0"/><path d="m181.484375 128.691406 13.722656-8.234375 27.4375 45.730469-13.722656 8.230469zm0 0"/><path d="m129.367188 41.820312 13.722656-8.230468 27.429687 45.714844-13.722656 8.230468zm0 0"/></g><path d="m232 344h96v16h-96zm0 0" fill="#5b6673"/><path d="m136 424c-13.230469 0-24-10.769531-24-24s10.769531-24 24-24 24 10.769531 24 24-10.769531 24-24 24zm0-32c-4.414062 0-8 3.585938-8 8s3.585938 8 8 8 8-3.585938 8-8-3.585938-8-8-8zm0 0" fill="#5b6673"/><path d="m128 360h16v24h-16zm0 0" fill="#5b6673"/><path d="m128 416h16v24h-16zm0 0" fill="#5b6673"/><path d="m96 392h24v16h-24zm0 0" fill="#5b6673"/><path d="m152 392h24v16h-24zm0 0" fill="#5b6673"/><path d="m98.34375 373.65625 11.3125-11.3125 24 24-11.3125 11.316406zm0 0" fill="#5b6673"/><path d="m138.339844 413.65625 11.316406-11.3125 24 24-11.3125 11.316406zm0 0" fill="#5b6673"/><path d="m138.339844 386.339844 24.003906-24.003906 11.3125 11.316406-24 24zm0 0" fill="#5b6673"/><path d="m98.339844 426.339844 24.003906-24.003906 11.3125 11.316406-24 24zm0 0" fill="#5b6673"/><path d="m48 400h16v16h-16zm0 0" fill="#5b6673"/><path d="m64 432h16v16h-16zm0 0" fill="#5b6673"/><path d="m400 200c0 17.671875-14.328125 32-32 32s-32-14.328125-32-32 14.328125-32 32-32 32 14.328125 32 32zm0 0" fill="#dc6068"/></svg>