<?xml version="1.0" encoding="iso-8859-1"?>
<!-- Generator: Adobe Illustrator 19.0.0, SVG Export Plug-In . SVG Version: 6.00 Build 0)  -->
<svg version="1.1" id="Capa_1" xmlns="http://www.w3.org/2000/svg" xmlns:xlink="http://www.w3.org/1999/xlink" x="0px" y="0px"
	 viewBox="0 0 368 368" style="enable-background:new 0 0 368 368;" xml:space="preserve">
<g>
	<path style="fill:#c6effd;" d="M328,328v16c0,8.8-7.2,16-16,16H56c-8.8,0-16-7.2-16-16v-32h80h128h64C320.8,312,328,319.2,328,328z
		"/>
	<path style="fill:#c6effd;" d="M216,24v144h-64v-48V56V24c0-8.8,7.2-16,16-16h32C208.8,8,216,15.2,216,24z"/>
</g>
<path style="fill:#0793C3;" d="M56,368h256c13.232,0,24-10.768,24-24v-16c0-13.232-10.768-24-24-24h-56v-24
	c0-13.232-10.768-24-24-24H120.792L48,241.44V104c0-4.408,3.584-8,8-8h24.808c3.72,18.232,19.872,32,39.192,32h24v56
	c0,22.056,17.944,40,40,40s40-17.944,40-40V24c0-13.232-10.768-24-24-24h-32c-13.232,0-24,10.768-24,24v24h-24
	c-19.312,0-35.472,13.768-39.192,32H56c-13.232,0-24,10.768-24,24v208v32C32,357.232,42.768,368,56,368z M184,208
	c-13.232,0-24-10.768-24-24v-8h48v8C208,197.232,197.232,208,184,208z M160,24c0-4.408,3.584-8,8-8h32c4.416,0,8,3.592,8,8v136h-48
	V24z M120,64h24v48h-24c-13.232,0-24-10.768-24-24S106.768,64,120,64z M320,328v16c0,4.408-3.584,8-8,8H56c-4.416,0-8-3.592-8-8v-24
	h264C316.416,320,320,323.592,320,328z M232,272c4.416,0,8,3.592,8,8v24H128v-32H232z M112,270.56V304H48v-46.24L112,270.56z"/>
</svg>
