<?xml version="1.0" encoding="iso-8859-1"?>
<!-- Generator: Adobe Illustrator 19.0.0, SVG Export Plug-In . SVG Version: 6.00 Build 0)  -->
<svg version="1.1" id="Capa_1" xmlns="http://www.w3.org/2000/svg" xmlns:xlink="http://www.w3.org/1999/xlink" x="0px" y="0px"
	 viewBox="0 0 368 368" style="enable-background:new 0 0 368 368;" xml:space="preserve">
<path style="fill:#c6effd;" d="M248,184c0,17.68-7.2,33.68-18.72,45.28C217.68,240.8,201.68,248,184,248s-33.68-7.2-45.28-18.72
	C127.2,217.68,120,201.68,120,184s7.2-33.68,18.72-45.28C150.32,127.2,166.32,120,184,120C219.36,120,248,148.64,248,184z M200,172
	c0-2.24-1.76-4-4-4s-4,1.76-4,4s1.76,4,4,4S200,174.24,200,172z"/>
<g>
	<path style="fill:#0793C3;" d="M312,256c-12.296,0-23.904,3.968-33.496,11.192l-38.264-38.264C250.44,216.168,256,200.496,256,184
		c0-39.696-32.296-72-72-72c-16.48,0-32.144,5.56-44.928,15.76l-38.264-38.264C108.032,79.904,112,68.296,112,56
		c0-30.88-25.12-56-56-56S0,25.12,0,56s25.12,56,56,56c12.296,0,23.904-3.968,33.496-11.192l38.264,38.264
		C117.56,151.832,112,167.504,112,184c0,16.48,5.56,32.144,15.76,44.928l-38.264,38.264C79.904,259.968,68.296,256,56,256
		c-30.88,0-56,25.12-56,56s25.12,56,56,56s56-25.12,56-56c0-12.304-3.976-23.936-11.192-33.496l38.256-38.256
		C151.832,250.44,167.504,256,184,256s32.168-5.56,44.936-15.752l38.264,38.264C259.96,288.096,256,299.704,256,312
		c0,30.88,25.128,56,56,56s56-25.12,56-56S342.872,256,312,256z M16,56c0-22.056,17.944-40,40-40s40,17.944,40,40
		c0,10.728-4.16,20.76-11.712,28.24c-0.016,0.016-0.032,0.032-0.048,0.048C76.76,91.84,66.728,96,56,96C33.944,96,16,78.056,16,56z
		 M56,352c-22.056,0-40-17.944-40-40s17.944-40,40-40c10.728,0,20.76,4.16,28.288,11.76C91.84,291.24,96,301.272,96,312
		C96,334.056,78.056,352,56,352z M144.392,223.648C133.824,213,128,198.92,128,184s5.824-29,16.352-39.608
		C155,133.824,169.08,128,184,128c30.872,0,56,25.12,56,56c0,14.904-5.816,28.976-16.376,39.624
		C212.976,234.184,198.904,240,184,240C169.08,240,155,234.176,144.392,223.648z M312,352c-22.056,0-40-17.944-40-40
		c0-10.728,4.16-20.76,11.712-28.24c0.016-0.016,0.032-0.032,0.048-0.048C291.24,276.16,301.272,272,312,272
		c22.056,0,40,17.944,40,40S334.056,352,312,352z"/>
	<path style="fill:#0793C3;" d="M196,160c-6.616,0-12,5.384-12,12s5.384,12,12,12s12-5.384,12-12S202.616,160,196,160z"/>
</g>
<g>
</g>
<g>
</g>
<g>
</g>
<g>
</g>
<g>
</g>
<g>
</g>
<g>
</g>
<g>
</g>
<g>
</g>
<g>
</g>
<g>
</g>
<g>
</g>
<g>
</g>
</svg>
