<svg height="488pt" viewBox="-68 0 488 488" width="488pt" xmlns="http://www.w3.org/2000/svg"><path d="m64 424h288v64h-288c-17.671875 0-32-14.328125-32-32s14.328125-32 32-32zm0 0" fill="#ca5057"/><path d="m32 360h288v64h-288c-17.671875 0-32-14.328125-32-32s14.328125-32 32-32zm0 0" fill="#eebc5a"/><path d="m64 296h288v64h-288c-17.671875 0-32-14.328125-32-32s14.328125-32 32-32zm0 0" fill="#bc8f6f"/><path d="m320 296v40l-24-16-24 16v-40" fill="#ca5057"/><path d="m80 88c0 8.835938-7.164062 16-16 16s-16-7.164062-16-16 7.164062-16 16-16 16 7.164062 16 16zm0 0" fill="#70b48f"/><path d="m184 256c0 8.835938-7.164062 16-16 16s-16-7.164062-16-16 7.164062-16 16-16 16 7.164062 16 16zm0 0" fill="#f8cf6a"/><path d="m200 136c0 8.835938-7.164062 16-16 16s-16-7.164062-16-16 7.164062-16 16-16 16 7.164062 16 16zm0 0" fill="#dc6068"/><path d="m304 64c0 8.835938-7.164062 16-16 16s-16-7.164062-16-16 7.164062-16 16-16 16 7.164062 16 16zm0 0" fill="#699ce6"/><path d="m64 296c-2.777344 0-5.433594.464844-8 1.128906v61.734375c2.566406.671875 5.222656 1.136719 8 1.136719h8v-64zm0 0" fill="#cb9e78"/><path d="m32 360c-2.777344 0-5.433594.464844-8 1.128906v61.734375c2.566406.671875 5.222656 1.136719 8 1.136719h8v-64zm0 0" fill="#f6dc74"/><path d="m64 424c-2.777344 0-5.433594.464844-8 1.128906v61.734375c2.566406.671875 5.222656 1.136719 8 1.136719h8v-64zm0 0" fill="#ed7775"/><path d="m88 296h16v64h-16zm0 0" fill="#cb9e78"/><path d="m56 360h16v64h-16zm0 0" fill="#f6dc74"/><path d="m88 424h16v64h-16zm0 0" fill="#ed7775"/><g fill="#bab8b9"><path d="m184 272c-1.191406 0-2.382812-.078125-3.558594-.238281l2.183594-15.851563c19.3125 2.664063 41.375-49.558594 41.375-119.910156 0-68.679688-21.121094-120-40-120s-40 51.320312-40 120c0 42.28125 7.816406 80.992188 20.886719 103.550781l-13.839844 8.023438c-14.429687-24.886719-23.046875-66.597657-23.046875-111.574219 0-65.929688 19.625-136 56-136s56 70.070312 56 136-19.625 136-56 136zm0 0"/><path d="m263.414062 216.382812c-29.78125 0-69.652343-12.453124-104.957031-30.542968-45.640625-23.398438-81.609375-54.253906-93.855469-80.535156l14.496094-6.761719c10.65625 22.855469 44.671875 51.535156 86.65625 73.058593 61.109375 31.320313 116.398438 35.941407 125.039063 19.140626 4.09375-7.988282-2.144531-22.292969-16.679688-38.269532-16.753906-18.402344-42.265625-36.886718-71.855469-52.058594-59.425781-30.453124-111.984374-35.460937-123.808593-21.023437l-12.378907-10.144531c21.449219-26.183594 88.425782-11.285156 143.480469 16.929687 31.257813 16.023438 58.394531 35.746094 76.402344 55.535157 19.78125 21.738281 26.558594 41.746093 19.078125 56.335937-6.617188 12.882813-21.902344 18.335937-41.617188 18.335937zm0 0"/><path d="m104.585938 216.382812c-19.722657 0-35-5.453124-41.609376-18.34375-7.488281-14.589843-.703124-34.597656 19.078126-56.335937 18.007812-19.792969 45.144531-39.511719 76.402343-55.535156 42.65625-21.863281 85.472657-33.0625 114.382813-30.023438l-1.6875 15.910157c-25.601563-2.703126-65.992188 8.160156-105.398438 28.351562-29.59375 15.167969-55.113281 33.65625-71.859375 52.058594-14.535156 15.976562-20.773437 30.277344-16.679687 38.269531 8.601562 16.800781 63.914062 12.175781 125.042968-19.140625 29.589844-15.167969 55.109376-33.65625 71.855469-52.058594 14.535157-15.976562 20.773438-30.277344 16.679688-38.269531l14.230469-7.296875c7.488281 14.589844.703124 34.597656-19.078126 56.335938-18.007812 19.792968-45.144531 39.511718-76.402343 55.535156-35.296875 18.089844-75.175781 30.542968-104.957031 30.542968zm0 0"/></g><path d="m184 160c-13.230469 0-24-10.769531-24-24s10.769531-24 24-24 24 10.769531 24 24-10.769531 24-24 24zm0-32c-4.414062 0-8 3.59375-8 8s3.585938 8 8 8 8-3.59375 8-8-3.585938-8-8-8zm0 0" fill="#ca5057"/><path d="m64 112c-13.230469 0-24-10.769531-24-24s10.769531-24 24-24 24 10.769531 24 24-10.769531 24-24 24zm0-32c-4.414062 0-8 3.59375-8 8s3.585938 8 8 8 8-3.59375 8-8-3.585938-8-8-8zm0 0" fill="#599072"/><path d="m288 88c-13.230469 0-24-10.769531-24-24s10.769531-24 24-24 24 10.769531 24 24-10.769531 24-24 24zm0-32c-4.414062 0-8 3.59375-8 8s3.585938 8 8 8 8-3.59375 8-8-3.585938-8-8-8zm0 0" fill="#5789d6"/><path d="m168 280c-13.230469 0-24-10.769531-24-24s10.769531-24 24-24 24 10.769531 24 24-10.769531 24-24 24zm0-32c-4.414062 0-8 3.59375-8 8s3.585938 8 8 8 8-3.59375 8-8-3.585938-8-8-8zm0 0" fill="#eebc5a"/></svg>